/* XPM */
static char *bitcoin16[] = {
/* columns rows colors chars-per-pixel */
"16 16 105 2 ",
"   c None",
".  c #233460",
"X  c #243561",
"o  c #293A64",
"O  c #2D3D67",
"+  c #38476E",
"@  c #404E74",
"#  c #4A587B",
"$  c #505D7F",
"%  c #5D6988",
"&  c #5F6B8A",
"*  c #616D8B",
"=  c #626E8C",
"-  c #65708D",
";  c #707A96",
":  c #707B96",
">  c #757F99",
",  c #76809A",
"<  c #7A839C",
"1  c #7D869E",
"2  c #7D869F",
"3  c #7F89A0",
"4  c #8089A1",
"5  c #828BA2",
"6  c #838CA3",
"7  c #858EA4",
"8  c #858EA5",
"9  c #878FA5",
"0  c #8991A7",
"q  c #8A92A8",
"w  c #8A93A8",
"e  c #8F97AB",
"r  c #8F97AC",
"t  c #8F98AC",
"y  c #9199AD",
"u  c #969EB0",
"i  c #99A0B2",
"p  c #9AA1B3",
"a  c #9BA2B3",
"s  c #9CA2B4",
"d  c #9CA3B4",
"f  c #9DA4B5",
"g  c #9EA5B6",
"h  c #9FA6B7",
"j  c #A0A7B7",
"k  c #A2A9B8",
"l  c #A2A8B9",
"z  c #A3AAB9",
"x  c #A9AFBE",
"c  c #AEB3C1",
"v  c #AFB5C2",
"b  c #B0B5C2",
"n  c #B3B8C5",
"m  c #B9BDC8",
"M  c #BABFC9",
"N  c #BDC1CB",
"B  c #C0C4CE",
"V  c #C2C6CF",
"C  c #C3C6CF",
"Z  c #C7CAD2",
"A  c #C7CAD3",
"S  c #C8CCD3",
"D  c #CBCED6",
"F  c #CED1D8",
"G  c #D3D6DB",
"H  c #D5D7DC",
"J  c #D8DADF",
"K  c #DBDCE0",
"L  c #DCDEE1",
"P  c #DFE0E3",
"I  c #DFE1E3",
"U  c #E1E2E5",
"Y  c #E4E5E7",
"T  c #E5E6E8",
"R  c #E6E7E8",
"E  c #E7E8E9",
"W  c #E7E8EB",
"Q  c #E9EAEB",
"!  c #ECEDED",
"~  c #EEEEEE",
"^  c #F0F0EF",
"/  c #F2F2F1",
"(  c #F3F3F1",
")  c #F3F3F2",
"_  c #F4F4F2",
"`  c #F5F4F3",
"'  c #F7F7F4",
"]  c #F8F7F5",
"[  c #F9F8F5",
"{  c #FBFAF7",
"}  c #FBFBF7",
"|  c #FCFBF8",
" . c #FDFCF8",
".. c #FDFCF9",
"X. c #FDFDF9",
"o. c #FEFDF9",
"O. c #FFFFF9",
"+. c #FFFDFA",
"@. c #FFFEFA",
"#. c #FFFFFA",
"$. c #FFFEFB",
"%. c #FFFFFB",
"&. c #FFFEFC",
"*. c #FFFFFC",
"=. c white",
/* pixels */
"          *.*.*.*.*.*.          ",
"      +.+.+.*.| ` *.+.+.*.      ",
"    +.+.r T +.V 3 *.+.[ ` +.    ",
"  *.+.+.S f l q > | ~ 6 6 l *.  ",
"  *.+.+.' q ' L + > +.n 9 z W   ",
"*.*.+.+.N U M f . . / M G +.*.*.",
"*.*.*.+.Z G G v 3 o V s q *.*.*.",
"*.*.*.+.+.1 L +.< u b F * *.*.*.",
"*.*.+.+.*.u c O . # - + y +.*.*.",
"*.+.+./ T u +.*.] ) f 3 U *.*.*.",
"*.*.a * x Q ! % % s T +.+.*.*.*.",
"  *.8 { f 8 9 : - +.+.+.+.*.*.  ",
"  *.B y 5 5 L & ~ +.+.+.+.+.    ",
"    *.) K h D S +.+.+.+.+.+.    ",
"      +.*.V t W +.+.+.+.        ",
"          *.*.*.*.*.            "
};
