/* XPM */
static char *bitcoin32[] = {
/* columns rows colors chars-per-pixel */
"32 32 206 2 ",
"   c None",
".  c #233460",
"X  c #243560",
"o  c #253561",
"O  c #253661",
"+  c #253662",
"@  c #263762",
"#  c #283863",
"$  c #293964",
"%  c #2A3B65",
"&  c #2B3B65",
"*  c #2C3C66",
"=  c #2D3D67",
"-  c #2F3E68",
";  c #2F3F68",
":  c #304069",
">  c #314169",
",  c #36466D",
"<  c #37476E",
"1  c #38476E",
"2  c #39486F",
"3  c #3A4970",
"4  c #3C4B71",
"5  c #3D4C72",
"6  c #3E4C72",
"7  c #3E4D73",
"8  c #3F4E73",
"9  c #404E74",
"0  c #414F75",
"q  c #425075",
"w  c #425175",
"e  c #425176",
"r  c #435176",
"t  c #445277",
"y  c #445377",
"u  c #455378",
"i  c #465478",
"p  c #48567A",
"a  c #49577B",
"s  c #4A587B",
"d  c #4B587C",
"f  c #4B597C",
"g  c #4D5A7D",
"h  c #4E5B7E",
"j  c #4F5C7F",
"k  c #556183",
"l  c #556283",
"z  c #566384",
"x  c #576484",
"c  c #586585",
"v  c #596585",
"b  c #596686",
"n  c #5F6B8A",
"m  c #606C8B",
"M  c #616D8B",
"N  c #626E8C",
"B  c #636E8C",
"V  c #64708D",
"C  c #65718E",
"Z  c #66718E",
"A  c #67728F",
"S  c #687390",
"D  c #687490",
"F  c #697491",
"G  c #697591",
"H  c #6A7692",
"J  c #6B7692",
"K  c #6C7692",
"L  c #6C7792",
"P  c #6C7793",
"I  c #6F7995",
"U  c #717B96",
"Y  c #727D97",
"T  c #747E98",
"R  c #757F99",
"E  c #76809A",
"W  c #77819B",
"Q  c #78829B",
"!  c #78829C",
"~  c #79839C",
"^  c #7A839C",
"/  c #7A849D",
"(  c #7D879F",
")  c #7E88A0",
"_  c #7F88A0",
"`  c #818BA2",
"'  c #828BA3",
"]  c #838CA3",
"[  c #848DA3",
"{  c #848DA4",
"}  c #868FA5",
"|  c #8790A6",
" . c #8890A6",
".. c #8891A6",
"X. c #8991A7",
"o. c #8992A7",
"O. c #8A92A8",
"+. c #8B93A8",
"@. c #8E96AA",
"#. c #8E96AB",
"$. c #8F97AB",
"%. c #8F97AC",
"&. c #9098AC",
"*. c #929AAD",
"=. c #949CAF",
"-. c #969DB0",
";. c #979EB1",
":. c #979FB1",
">. c #9AA1B3",
",. c #9AA2B3",
"<. c #9DA4B5",
"1. c #A0A7B8",
"2. c #A1A8B8",
"3. c #A2A8B9",
"4. c #A3AABA",
"5. c #A5ABBA",
"6. c #A6ACBB",
"7. c #AAB0BE",
"8. c #ABB1BF",
"9. c #ACB1BF",
"0. c #ACB2C0",
"q. c #ADB3C0",
"w. c #B0B5C2",
"e. c #B0B6C3",
"r. c #B2B7C4",
"t. c #B2B8C4",
"y. c #B3B8C4",
"u. c #B4B9C5",
"i. c #B4BAC6",
"p. c #B6BBC7",
"a. c #B7BCC7",
"s. c #B7BCC8",
"d. c #B8BDC8",
"f. c #B9BDC9",
"g. c #BABEC9",
"h. c #BCC0CB",
"j. c #BDC1CC",
"k. c #C0C4CE",
"l. c #C1C5CE",
"z. c #C1C5CF",
"x. c #C3C7D0",
"c. c #C5C9D1",
"v. c #C6C9D2",
"b. c #C8CBD3",
"n. c #C9CCD4",
"m. c #C9CDD4",
"M. c #CCCFD6",
"N. c #CFD2D8",
"B. c #D2D5DA",
"V. c #D4D6DB",
"C. c #D4D6DC",
"Z. c #D4D7DC",
"A. c #D5D7DC",
"S. c #D6D8DD",
"D. c #D6D9DD",
"F. c #D7D9DE",
"G. c #D9DBDF",
"H. c #DADCE0",
"J. c #DCDDE1",
"K. c #DDDEE2",
"L. c #DEDFE3",
"P. c #DFE0E3",
"I. c #DFE1E3",
"U. c #E0E2E4",
"Y. c #E1E2E5",
"T. c #E2E3E5",
"R. c #E3E4E6",
"E. c #E4E5E7",
"W. c #E5E6E7",
"Q. c #E5E6E8",
"!. c #E6E7E8",
"~. c #E7E8E9",
"^. c #E8E9EA",
"/. c #E9E9EA",
"(. c #EAEBEB",
"). c #EBEBEC",
"_. c #ECEDED",
"`. c #EEEEEE",
"'. c #EFEFEE",
"]. c #F0F0EF",
"[. c #F1F1F0",
"{. c #F2F2F0",
"}. c #F3F3F2",
"|. c #F4F4F2",
" X c #F5F5F3",
".X c #F6F5F3",
"XX c #F7F6F4",
"oX c #F8F8F5",
"OX c #F9F8F5",
"+X c #F9F9F6",
"@X c #FAFAF7",
"#X c #FBFAF7",
"$X c #FBFBF7",
"%X c #FCFBF8",
"&X c #FDFCF8",
"*X c #FEFDF9",
"=X c #FFFEF9",
"-X c #FFFFF9",
";X c #FFFDFA",
":X c #FFFEFA",
">X c #FFFFFA",
",X c #FFFFFB",
"<X c #FFFFFD",
"1X c #FFFEFE",
"2X c #FFFFFE",
"3X c white",
/* pixels */
"                        1X1X1X1X1X1X1X1X                        ",
"                  1X1X1X1X1X1X1X1X1X1X1X1X1X1X                  ",
"              >X>X;X>X;X>X>X>X>X>X>X>X>X>X;X>X;X>X              ",
"            >X>X;X>X;X>X>X>X>X}.A.>X>X>X;X>X;X>X>X>X            ",
"          >X>X>X`.7..X>X>X;X;XK . n.>X;X>X;X>X;X>X>X>X          ",
"        >X>X>X;X] . <.>X;X>X1X1.; Q.;X>X;X>X;X~.J.OX>X>X        ",
"      >X;X>X;X>XA.k =.>X;XJ.x.n.6 >X>X;X>Xn.) ) ) ' +..X>X      ",
"    1X;X>X;X>X;X>X.Xd 3.h M R $ . / [.>X;X}.' #.#.] *.W >X      ",
"    1X>X>X;X>X;X>X>X%.k R.>X>XB.; . p [.;X>XA.=.u.T  .$.c.1X    ",
"  1X1X>X;X>X;X>X;XY.d .X>X>XY.g.K . . / >X;X>XF < g.p.k.A.1X1X  ",
"  1X1X>X>X;X>X;X>X@.0.1X>X} X.G . . . $ }.>X>XK K >X>X;X>X1X1X  ",
"  1X1X>X;X>X;X>X>XF G.>X>XZ >XX.. . . . A.>X>X/ Q.1X>X>X>X1X1X  ",
"1X1X1X>X>X>X>X;X>XU N.>X>XB >.k ; = . . I.G.<.u <.Y.>X;X>X1X1X1X",
"1X1X1X>X;X>X;X>X>X9. .>X1X`.A.OX1X:.. 9 #Xc c.b.0 K ;X>X>X1X1X1X",
"1X1X1X>X>X;X>X;X>XOXh n.>X>X>X>X%Xi . w.J.[ 1XJ.. +.>X>X>X1X1X1X",
"1X1X1X>X;X>X;X>X;X>Xr.& $.E.;XOX] . =.>Xy.9.>XM . p.>X>X>X1X1X1X",
"1X1X;X>X;X>X>X>X>X>XX.6.1.t & o . o m K 4 7.:.. . Q.>X;X>X1X1X1X",
"1X1X1X;X>X;X>X>X;X>XZ B.>XA.q . . . o 1 c k . . 1 >X;X>X;X1X1X1X",
"1X1X1X>X;X>X>X>X>X;Xc Q.>X>X>X#X].].;X>X;Xr.. . ' ;X>X;X>X1X1X1X",
"1X1X1X;X;X;XY.U.H.k.1 Y.>X;X>X1X>X>X;XV./ u A.R.;X>X;X>X>X1X1X  ",
"  1X1X>X>XM . o 0 F 7.;X>Xf.F T T m 1 h 1.OX;X>X>X;X>X;X>X1X1X  ",
"  1X1X>X/.. M Y.>X;X>X>X>X#XT . . p `.;X>X>X>X;X;X>X;X>X>X1X1X  ",
"  1X1X>XH.o ].>XOXOX/.M.:.u K 0 . +.>X>X;X>X;X>X>X;X>X>X>X1X    ",
"    1X>X/.- >X1Xi 4 4 . K A.`.# = ~.>X;X>X;X>X;X;X>X>X>X>X1X    ",
"      >X>Xu H.~.0 H.k G ;X;XU o u.;X>X;X>X;X>X;X>X;X>X;X>X      ",
"      >X>Xk.0 t r.0 h #X>X' ; f.1X>X;X>X;X>X;X>X;X>X>X>X>X      ",
"        >X;X).Q.>XT / >X>X/ 6.>X>X>X>X;X>X;X>X;X>X;X>X>X        ",
"          >X;X>X>X[.0 x.>Xu.) >X>X;X;X>X;X>X;X>X;X>X;X          ",
"            >X>X>X>XH.7 ' M 3.>X;X>X;X>X>X>X>X;X>X>X            ",
"                >X>X>X}.0.q.>X>X>X;X>X;X>X>X>X>X                ",
"                    1X1X1X1X1X1X1X1X1X1X1X1X                    ",
"                          1X1X1X1X1X1X                          "
};
