/* XPM */
static char *bitcoin64[] = {
/* columns rows colors chars-per-pixel */
"64 64 136 2 ",
"   c None",
".  c #233460",
"X  c #283762",
"o  c #2C3A63",
"O  c #313E65",
"+  c #354166",
"@  c #384367",
"#  c #3A4568",
"$  c #3E486A",
"%  c #434D6D",
"&  c #47506F",
"*  c #48516F",
"=  c #4C5471",
"-  c #535B75",
";  c #575E78",
":  c #585F78",
">  c #5C627B",
",  c #61677E",
"<  c #63697F",
"1  c #666B81",
"2  c #696E83",
"3  c #6D7286",
"4  c #6F7488",
"5  c #727689",
"6  c #757A8B",
"7  c #7A7E8F",
"8  c #7D8191",
"9  c #828695",
"0  c #868997",
"q  c #878A98",
"w  c #8A8D9A",
"e  c #8E919D",
"r  c #90939F",
"t  c #9396A1",
"y  c #9699A4",
"u  c #999CA6",
"i  c #9C9FA9",
"p  c #9FA1AA",
"a  c #A3A5AD",
"s  c #A7A9B1",
"d  c #ABADB4",
"f  c #AFB1B7",
"g  c #B2B4BA",
"h  c #B7B8BE",
"j  c #B9BABF",
"k  c #BCBDC2",
"l  c #BFC1C5",
"z  c #C1C2C6",
"x  c #C5C6C9",
"c  c #C7C8CB",
"v  c #CACBCE",
"b  c #CECED1",
"n  c #CFD0D2",
"m  c #D2D3D4",
"M  c #D7D7D8",
"N  c #D7D8D9",
"B  c gray86",
"V  c #DADADB",
"C  c #D9D9DA",
"Z  c #DBDBDC",
"A  c gainsboro",
"S  c #DCDCDD",
"D  c #DBDBDC",
"F  c #E0DFDF",
"G  c #E1E1E1",
"H  c #E2E2E2",
"J  c #E3E3E2",
"K  c gray89",
"L  c #E4E3E3",
"P  c #E4E4E3",
"I  c #E4E4E4",
"U  c #E5E4E4",
"Y  c #E5E5E4",
"T  c #E6E5E4",
"R  c #E6E5E5",
"E  c #E6E6E5",
"W  c #E3E3E2",
"Q  c #E8E8E7",
"!  c #E9E8E7",
"~  c #E8E8E7",
"^  c #EAE9E8",
"/  c #EBEAE9",
"(  c #EBEBE9",
")  c #EBEBEA",
"_  c #ECECEA",
"`  c #EDECEB",
"'  c #EFEEEC",
"]  c #EFEFED",
"[  c #ECECEA",
"{  c #F0EFED",
"}  c #F0EFEE",
"|  c #F0EFED",
" . c #F0F0ED",
".. c #F1F1EF",
"X. c #F2F1EF",
"o. c #F2F2EF",
"O. c #F1F1EE",
"+. c #F3F2F0",
"@. c #F3F3F0",
"#. c #F4F3F0",
"$. c #F4F3F1",
"%. c #F4F4F1",
"&. c #F5F4F1",
"*. c #F5F4F2",
"=. c #F5F5F2",
"-. c #F6F5F2",
";. c #F6F5F3",
":. c #F6F6F3",
">. c #F7F6F3",
",. c #F5F4F2",
"<. c #F8F7F4",
"1. c #F8F7F4",
"2. c #F9F8F4",
"3. c #F8F8F5",
"4. c #F9F8F5",
"5. c #F9F9F5",
"6. c #FAF9F5",
"7. c #FAF9F6",
"8. c #FAFAF6",
"9. c #FBFAF6",
"0. c #FCFBF7",
"q. c #FAF9F6",
"w. c #FCFBF8",
"e. c #FDFCF8",
"r. c #FDFCF9",
"t. c #FDFDF9",
"y. c #FEFDF9",
"u. c #FEFDFA",
"i. c #FFFEFA",
"p. c #FFFEFB",
"a. c #FFFFFB",
"s. c #FFFEFD",
"d. c #FFFFFD",
"f. c #FFFFFE",
"g. c white",
"h. c #FFFEFB",
/* pixels */
"                                                    f.f.f.f.f.f.f.f.f.f.f.f.                                                    ",
"                                            f.f.f.f.f.f.f.f.f.f.f.f.f.f.f.f.f.f.f.f.                                            ",
"                                      f.f.f.f.f.f.f.f.f.f.f.f.f.f.f.f.f.f.f.f.f.f.f.f.f.                                        ",
"                                  f.f.f.f.f.f.f.f.f.f.f.f.f.f.f.f.f.f.f.f.f.f.f.f.f.f.f.f.f.                                    ",
"                                i.i.f.i.i.f.i.i.f.i.i.i.f.i.i.f.i.f.i.i.f.i.i.i.i.i.i.f.f.i.i.i.                                ",
"                            i.i.i.i.i.i.i.i.i.i.i.i.i.i.i.i.i.i.i.i.i.i.i.i.i.i.i.i.i.i.i.i.i.i.i.i.                            ",
"                          i.i.i.i.i.i.i.i.i.i.i.i.i.i.i.i.i.i.i.i.i.i.i.i.i.i.i.i.i.i.i.i.i.i.i.i.i.i.                          ",
"                      i.i.i.i.i.i.i.i.i.i.i.i.i.i.i.i.i.i.i.i.G z Z i.i.i.i.i.i.i.i.i.i.i.i.i.i.i.i.i.i.                        ",
"                    i.i.i.i.i.i.i.i.3.0.i.i.i.i.i.i.i.i.i.i.H - X % m i.i.i.i.i.i.i.i.i.i.i.i.i.i.i.i.i.i.i.                    ",
"                  i.i.i.i.i.i.i.i.m q y P i.i.i.i.i.i.i.i.i.l X . . a w.i.i.i.i.i.i.i.i.i.i.i.i.i.i.i.i.i.i.i.                  ",
"                i.i.i.i.i.i.i.i.` > . . 9 3.i.i.i.i.i.i.i.i.N $ . O x w.i.i.i.i.i.i.i.i.i.i.i.i.i.i.i.i.i.i.i.i.                ",
"              i.i.i.i.i.i.i.i.i.P % . . , 3.i.i.i.i.i.i.i.i.0.c @ e 3.i.i.i.i.i.i.i.i.i.i.3.( V m V ( 3.i.i.i.i.                ",
"              i.i.i.i.i.i.i.i.i.3.y + . r e.i.i.i.i.i.i.e.e.e.>.1 0 0.i.i.i.i.i.i.i.i.@.l 8 3 e y e 4 9 x =.i.i.i.              ",
"            i.i.i.i.i.i.i.i.i.i.i.1.V 9 & A i.i.e.3.G c g d g x 5 > =.i.i.i.i.i.i.i.=.9 t m M x k c Z m w 9 L i.i.i.            ",
"          f.i.i.i.i.i.i.i.i.i.i.i.i.i.P ; 6 o.=.z 6 $ @ % + X X X + h =.i.i.i.i.i.i.i.E M 0 6 a d a 5 e V j 3 E i.i.f.          ",
"          f.i.i.i.i.i.i.i.i.i.i.i.i.i.e.x @ r 6 + 3 g V ~ m 4 X . . o 6 Z i.i.i.i.i.i.3.y v E c k v E l 1 m g 0 <.i.f.          ",
"        f.f.i.i.i.i.i.i.i.i.i.i.i.i.i.i.3.9 X - l $.i.i.i.i.` t X . . . = n i.i.i.i.i.i.e.v 2 y g y 4 m b 2 G 6 n i.f.f.        ",
"      f.f.f.i.i.i.i.i.i.i.i.i.i.i.i.i.i.Z = 3 G i.i.i.i.i.i.i.$.q . . . X = V i.i.i.i.i.i.v V =...<.m 1 E e k g i w.f.f.        ",
"      f.f.f.i.i.i.i.i.i.i.i.i.i.i.i.i.@.4 > G i.i.i.i.i.i.i.i.i.E - . . . . 5 @.i.i.i.i.i.i.P 7 = s >.t z z i M i w.f.f.f.      ",
"    f.f.f.f.i.i.i.i.i.i.i.i.i.i.i.i.i.k + x i.i.i.i.i.3.Q v g a i ; . . . . X k e.i.i.i.i.e.i . . & ( m V $.) w.3.i.f.f.f.      ",
"    f.f.f.f.i.i.i.i.i.i.i.i.i.i.i.i.3.5 3 =.i.i.i.i.@.a ; 3 8 % . . . . . . . 5 3.i.i.i.i.e.s X X 8 >.w.i.i.i.i.i.i.f.f.f.f.    ",
"    f.f.f.f.i.i.i.i.i.i.i.i.i.i.i.i.E % f i.i.i.i.i.j ; V 3.=., . . . . . . . $ P i.i.i.i.i.| ; t ` i.i.i.i.i.i.i.i.f.f.f.f.    ",
"  f.f.f.f.f.i.i.i.i.i.i.i.i.i.i.i.i.m # b i.i.i.i.i.u e w.i...* . . . . . . . O m i.i.i.i.i.' = M i.i.i.i.i.i.i.i.i.f.f.f.f.    ",
"  f.f.f.f.f.i.i.i.i.i.i.i.i.i.i.i.i.v @ M i.i.i.i.i.t a i.i.` & . . . . . . . X v i.i.i.i.e.M = ( i.i.i.i.i.i.i.i.i.f.f.f.f.f.  ",
"  f.f.f.f.f.i.i.i.i.i.i.i.i.i.i.i.i.m @ m e.i.i.i.e.y u 3.1.L = . . . . . . . o n i.i.i.3.3.g 1 =.3.i.f.i.i.i.i.i.i.f.f.f.f.f.  ",
"  f.f.f.f.f.i.i.i.i.i.i.i.i.i.i.i.i.G $ h i.i.i.i.i.v * 5 1 : ; 3 5 6 % . . . $ G i...s 6 4 = $ 3 6 g 3.i.i.i.i.i.i.f.f.f.f.f.  ",
"f.f.f.f.f.f.i.i.i.i.i.i.i.i.i.i.i.i.=.1 8 3.i.i.i.i.e.M x V ` =.>.3.=.9 . . . < =.w.i > g k k k e X # C i.i.i.i.i.i.f.f.f.f.f.  ",
"f.f.f.f.f.f.i.i.i.i.i.i.i.i.i.i.i.i.i.g @ m i.i.i.i.i.e.i.i.i.i.f.i...- . . . g i...- c i.i.i.0.y . o b i.i.i.i.i.i.f.f.f.f.f.  ",
"f.f.f.f.f.f.i.i.i.i.i.i.i.i.i.i.i.i.i.( > 3 ' i.i.i.i.i.i.i.i.i.i.e.z o . . > ' i.S = G i.i.i.( = . $ H i.i.i.i.i.i.f.f.f.f.f.f.",
"f.f.f.f.f.f.i.i.i.i.i.i.i.i.i.i.i.i.i.i.v $ 0 ' i.i.i.i.i.i.i.i.i. .2 . . @ v e.i.c ; ..i.i.i.g X X > =.i.i.i.i.i.i.f.f.f.f.f.f.",
"f.f.f.f.f.f.i.i.i.i.i.i.i.i.i.i.i.i.i.i.0.a . 5 M 3.i.i.i.i.i.i.3.a X . @ j 0.i.i.d 8 3.i.i.( - . . e i.i.i.i.i.i.i.f.f.f.f.f.f.",
"f.f.f.f.f.f.i.i.i.i.i.i.i.i.i.i.i.i.i.i.w.r O = % e b ( 3.3.1.( g O . * v 0.i.i.0.q a w.i.3.t X . X g i.i.i.i.i.i.i.f.f.f.f.f.f.",
"f.f.f.f.f.f.i.i.i.i.i.i.i.i.i.i.i.i.i.i.=.> 6 H a - @ % > 1 > % X . . * g m m v f * z i.e.k O . . O m i.i.i.i.i.i.i.f.f.f.f.f.f.",
"f.f.f.f.f.f.i.i.i.i.i.i.i.i.i.i.i.i.i.i.P $ a i.e.' c % . . . . . . . . . O O o . X t v c % . . . % ~ i.i.i.i.i.i.i.f.f.f.f.f.f.",
"f.f.f.f.f.f.i.i.i.i.i.i.i.i.i.i.i.i.i.i.m + k i.i.i.0.i X . . . . . . . . . . . . o o O O . . . . 2 <.i.i.i.i.i.i.i.f.f.f.f.f.f.",
"f.f.f.f.f.f.i.i.i.i.i.i.i.i.i.i.i.i.i.i.x + m i.i.i.i...g 6 - * % % $ % * > 6 r d c n t . . . . . y i.i.i.i.i.i.i.i.f.f.f.f.f.f.",
"f.f.f.f.f.f.i.i.i.i.i.i.i.i.i.i.i.i.i.i.k @ S i.i.i.i.i.e.3.1...( ~ ~ ' o.1.3.e.i.i.i.b O . . . o z i.i.i.i.i.i.i.i.f.f.f.f.f.  ",
"  f.f.f.f.f.i.i.i.i.i.i.i.i.i.i.i.i.i.i.k @ G i.i.i.i.i.i.i.i.i.i.i.i.i.i.i.i.i.i.e.P 5 o @ O $ r $.i.i.i.i.i.i.i.i.f.f.f.f.f.  ",
"  f.f.f.f.f.i.i.i.i.i.i.i.i.i.i.i.i.i.3.d + N i.i.i.i.i.i.i.i.i.i.i.i.i.i.i.i.i.o.z > + g G S G 3.i.i.i.i.i.i.i.i.i.f.f.f.f.f.  ",
"  f.f.f.f.f.i.i.i.i.i.@.F V N m m m k p % $ S i.i.i.3.3.i.i.i.i.i.i.i.i.e.=.S g < O - z 3.i.i.i.i.i.i.i.i.i.i.i.i.i.f.f.f.f.f.  ",
"  f.f.f.f.f.i.i.i.i.P 5 # + + + O O o + > j 3.i.i.i.H u h v A G S V v h y 1 @ o - a ~ i.i.i.i.i.i.i.i.i.i.i.i.i.i.i.f.f.f.f.f.  ",
"    f.f.f.f.i.i.i.3.q X . . o & 9 a l V ..i.i.i.i.i.i.M 6 # + @ # + o X + - e c ) w.i.i.i.i.i.i.i.i.i.i.i.i.i.i.i.i.f.f.f.f.    ",
"    f.f.f.f.i.i.i.( % . X 2 x ' 3.i.i.i.i.i.i.i.i.i.i.i.o.8 . . . . X 9 Z @.i.i.i.i.i.i.i.i.i.i.i.i.i.i.i.i.i.i.i.i.f.f.f.f.    ",
"    f.f.f.f.i.i.i.V + . 8 ( i.i.i.i.i.i.i.i.i.i.i.i.e.o.a o . . . . X k i.i.i.i.i.i.i.i.i.i.i.i.i.i.i.i.i.i.i.i.i.i.f.f.f.f.    ",
"      f.f.f.i.i.i.m o # Z i.i.i.i.i.i.i.i.i.i.i.e.' j < X 3 7 . . . # S i.i.i.i.i.i.i.i.i.i.i.i.i.i.i.i.i.i.i.i.i.i.f.f.f.      ",
"      f.f.f.i.i.i.m O < >.i.i.i.>.` } ` ~ S b g w * o * s ' u . . . 6 >.i.i.i.i.i.i.i.i.i.i.i.i.i.i.i.i.i.i.i.i.i.i.f.f.f.      ",
"        f.f.i.i.i.N + 6 3.i.i.i.f & & & % # o X X < d P e.=.2 . . O c i.i.i.i.i.i.i.i.i.i.i.i.i.i.i.i.i.i.i.i.i.i.i.f.f.        ",
"        f.f.i.i.i.( % 1 3.i.i.i.t + q e e 8 X X y =.i.i.i.m + . . 9 =.i.i.i.i.i.i.i.i.i.i.i.i.i.i.i.i.i.i.i.i.i.i.i.f.f.        ",
"          f.i.i.i.3.5 & ' i.i.=.< 3 =.3.S 6 X 0 ..i.i.i...6 . . > E i.i.i.i.i.i.i.i.i.i.i.i.i.i.i.i.i.i.i.i.i.i.i.i.f.          ",
"          f.i.i.i.i.k O g 3.i.c + d ..d * X 9 ' i.i.i.3.a X . > S i.i.i.i.i.i.i.i.i.i.i.i.i.i.i.i.i.i.i.i.i.i.i.i.i.            ",
"            i.i.i.i...5 $ d j - > P a X X 4 ' i.i.i.3.d o X 1 S i.i.i.i.i.i.i.i.i.i.i.i.i.i.i.i.i.i.i.i.i.i.i.i.i.i.            ",
"              i.i.i.i.L 5 + O > M 3.9 X O m i.i.i.i.d O + r ' i.i.i.i.i.i.i.i.i.i.i.i.i.i.i.i.i.i.i.i.i.i.i.i.i.i.              ",
"                i.i.i.i.=.M v ` i.i.g X % ' i.i.i.i.z o t 3.i.i.i.i.i.i.i.i.i.i.i.i.i.i.i.i.i.i.i.i.i.i.i.i.i.i.                ",
"                  i.i.i.i.i.i.i.i.i...3 O n i.i.i.i.=.> 4 1.i.i.i.i.i.i.i.i.i.i.i.i.i.i.i.i.i.i.i.i.i.i.i.i.i.                  ",
"                    i.i.i.i.i.i.i.i.i.N & 3 ( i.i.i.i.u % ~ i.i.i.i.i.i.i.i.i.i.i.i.i.i.i.i.i.i.i.i.i.i.i.i.                    ",
"                      i.i.i.i.i.i.i.i.e.j + 8 ~ i.i.i.s @ P i.i.i.i.i.i.i.i.i.i.i.i.i.i.i.i.i.i.i.i.i.i.i.                      ",
"                        i.i.i.i.i.i.i.i.3.a O < m >...7 - ` i.i.i.i.i.i.i.i.i.i.i.i.i.i.i.i.i.i.i.i.i.i.                        ",
"                          i.i.i.i.i.i.i.i.3.g & + , > O s i.i.i.i.i.i.i.i.i.i.i.i.i.i.i.i.i.i.i.i.i.i.                          ",
"                              i.i.i.i.i.i.i.i.F a 5 6 g =.i.i.i.i.i.i.i.i.i.i.i.i.i.i.i.i.i.i.i.i.                              ",
"                                i.i.i.f.f.i.i.i.i.w.3.i.i.i.i.f.i.f.i.i.i.i.f.i.i.i.i.f.f.i.i.i.                                ",
"                                    f.f.f.f.f.f.f.f.f.f.f.f.f.f.f.f.f.f.f.f.f.f.f.f.f.f.f.f.                                    ",
"                                        f.f.f.f.f.f.f.f.f.f.f.f.f.f.f.f.f.f.f.f.f.f.f.                                          ",
"                                              f.f.f.f.f.f.f.f.f.f.f.f.f.f.f.f.f.                                                ",
"                                                          f.f.f.f.f.f.                                                          "
};
